<?xml version="1.0" encoding="UTF-8"?>
<svg viewBox="0 0 96 96" version="1.1" xmlns="http://www.w3.org/2000/svg" xmlns:xlink="http://www.w3.org/1999/xlink">
    <title>编组</title>
    <g id="页面-1" stroke="none" stroke-width="1" fill="none" fill-rule="evenodd">
        <g id="编组">
            <circle id="椭圆形" fill="#DBEAFE" cx="48" cy="48" r="48"></circle>
            <g id="pointer" transform="translate(35.680851, 35.680851)" stroke="#3B82F6" stroke-linecap="round" stroke-linejoin="round" stroke-width="2">
                <path d="M24,14.4 C24,19.7019336 19.7019336,24 14.4,24" id="路径"></path>
                <path d="M19.2,11.2 L19.2,10.1333333 C19.2,8.95512587 18.1254834,8 16.8,8 C15.4745166,8 14.4,8.95512587 14.4,10.1333333" id="路径"></path>
                <path d="M14.4,9.6 L14.4,8.53333333 C14.4,7.35512587 13.3254834,6.4 12,6.4 C10.6745166,6.4 9.6,7.35512587 9.6,8.53333333 L9.6,9.6" id="路径"></path>
                <path d="M9.6,9 L9.6,2.4 C9.6,1.0745166 8.5254834,0 7.2,0 C5.8745166,0 4.8,1.0745166 4.8,2.4 L4.8,14.4" id="路径"></path>
                <path d="M19.2252049,10.4615385 C19.2252049,9.10206831 20.2940792,8 21.6126025,8 C22.9311257,8 24,9.10206831 24,10.4615385 L24,14.1538462 C24,19.5917268 19.7245029,24 14.4504098,24 L12.0630123,24 C8.72065576,24 6.69136785,22.9415385 4.91275668,21.12 L0.615441116,16.6892308 C-0.237596536,15.71514 -0.199407444,14.2223228 0.702247619,13.2959517 C1.60390268,12.3695806 3.05188277,12.3354901 3.99360863,13.2184615 L6.09451847,15.3846154" id="路径"></path>
            </g>
        </g>
    </g>
</svg>
